<svg width="106" height="34" viewBox="0 0 106 34" fill="none" xmlns="http://www.w3.org/2000/svg">
<path d="M26.8621 28.1301C26.9969 30.8376 24.4492 33.1648 21.1717 33.328C17.8941 33.4913 15.1279 31.4287 14.993 28.7211C14.8582 26.0136 17.4059 23.6864 20.6834 23.5232C23.961 23.36 26.7273 25.4225 26.8621 28.1301Z" fill="#949494"/>
<path d="M15.2101 22.6871C15.2831 24.1528 14.5336 25.3813 13.5361 25.431C12.5386 25.4807 11.6707 24.3327 11.5977 22.867C11.5248 21.4013 12.2742 20.1728 13.2717 20.1231C14.2693 20.0734 15.1371 21.2214 15.2101 22.6871Z" fill="#949494"/>
<path d="M19.7077 19.5072C19.7806 20.9729 19.0312 22.2014 18.0337 22.2511C17.0361 22.3008 16.1683 21.1528 16.0953 19.6871C16.0223 18.2213 16.7718 16.9929 17.7693 16.9432C18.7669 16.8935 19.6347 18.0415 19.7077 19.5072Z" fill="#949494"/>
<path d="M24.353 19.2757C24.426 20.7415 23.6765 21.97 22.679 22.0196C21.6815 22.0693 20.8136 20.9214 20.7406 19.4556C20.6677 17.9899 21.4171 16.7614 22.4146 16.7117C23.4122 16.6621 24.28 17.81 24.353 19.2757Z" fill="#949494"/>
<path d="M29.1445 21.9934C29.2175 23.4591 28.468 24.6876 27.4705 24.7372C26.473 24.7869 25.6052 23.639 25.5322 22.1732C25.4592 20.7075 26.2087 19.479 27.2062 19.4293C28.2037 19.3797 29.0715 20.5276 29.1445 21.9934Z" fill="#949494"/>
<path d="M11.3786 15.61C9.83658 17.8396 6.39856 18.1338 3.69956 16.2672C1.00055 14.4005 0.0626131 11.0799 1.60462 8.85026C3.14662 6.62065 6.58464 6.3264 9.28364 8.19304C11.9827 10.0597 12.9206 13.3803 11.3786 15.61Z" fill="#949494"/>
<path d="M5.45173 4.19651C4.61696 5.40352 3.27434 5.92145 2.4529 5.35335C1.63147 4.78524 1.64228 3.34622 2.47704 2.13921C3.31181 0.932206 4.65443 0.414273 5.47587 0.98238C6.29731 1.55049 6.2865 2.9895 5.45173 4.19651Z" fill="#949494"/>
<path d="M10.955 4.41317C10.1202 5.62018 8.77759 6.13811 7.95615 5.57001C7.13472 5.0019 7.14552 3.56289 7.98029 2.35588C8.81506 1.14887 10.1577 0.630934 10.9791 1.19904C11.8006 1.76715 11.7897 3.20616 10.955 4.41317Z" fill="#949494"/>
<path d="M14.7806 7.05855C13.9459 8.26556 12.6033 8.78349 11.7818 8.21538C10.9604 7.64728 10.9712 6.20826 11.806 5.00125C12.6407 3.79424 13.9833 3.27631 14.8048 3.84442C15.6262 4.41252 15.6154 5.85154 14.7806 7.05855Z" fill="#949494"/>
<path d="M16.9257 12.1319C16.091 13.3389 14.7484 13.8568 13.9269 13.2887C13.1055 12.7206 13.1163 11.2816 13.9511 10.0746C14.7858 8.86759 16.1284 8.34966 16.9499 8.91776C17.7713 9.48587 17.7605 10.9249 16.9257 12.1319Z" fill="#949494"/>
<path d="M38.0852 26.8083C36.7921 26.1708 35.7356 25.3421 34.9162 24.3221C34.0964 23.2841 33.4866 22.173 33.0858 20.9891C32.7032 19.7872 32.512 18.6215 32.512 17.4923V16.8911C32.512 15.6527 32.7121 14.4323 33.1129 13.2302C33.5137 12.01 34.124 10.908 34.9434 9.92447C35.7814 8.94096 36.8286 8.15785 38.0852 7.57512C39.3601 6.97394 40.8627 6.67346 42.593 6.67346C44.3964 6.67346 45.9897 7.01042 47.374 7.68433C48.7583 8.35824 49.8602 9.29616 50.68 10.4983C51.5176 11.6822 52.0096 13.0754 52.155 14.6783H47.6472C47.5199 13.8767 47.2281 13.1939 46.7731 12.6292C46.3176 12.0645 45.726 11.6275 44.9973 11.3179C44.2869 11.0083 43.4854 10.8535 42.593 10.8535C41.7007 10.8535 40.9085 11.0083 40.2163 11.3179C39.5242 11.6275 38.9415 12.0645 38.4677 12.6292C38.3165 12.8165 38.1764 13.0158 38.0474 13.2271C38.0118 13.2854 37.9771 13.3445 37.9433 13.4046L37.8961 13.4893C37.8614 13.5536 37.8276 13.6188 37.7947 13.6848C37.7427 13.7891 37.6928 13.8959 37.6457 14.0053C37.6203 14.0642 37.5959 14.1236 37.5719 14.1839C37.5523 14.2322 37.5332 14.2811 37.5145 14.3305C37.4753 14.4352 37.438 14.542 37.4024 14.651C37.1653 15.4158 37.047 16.2719 37.047 17.2189C37.047 18.148 37.1653 19.0038 37.4024 19.7872C37.4304 19.8708 37.4593 19.9533 37.4896 20.0347L37.5363 20.1555C37.7796 20.7702 38.099 21.3214 38.4949 21.8087C38.9868 22.3734 39.5878 22.8104 40.2982 23.12C41.0086 23.4116 41.8191 23.5573 42.7296 23.5573C44.1139 23.5573 45.2794 23.2203 46.2268 22.5464C47.1921 21.8725 47.7748 20.9437 47.975 19.7598H52.4557C52.2916 21.2168 51.8001 22.5555 50.9802 23.7759C50.1791 24.9778 49.0768 25.9431 47.6747 26.6717C46.2904 27.3821 44.6419 27.7373 42.7296 27.7373C40.9267 27.7373 39.3783 27.4275 38.0852 26.8083Z" fill="#949494"/>
<path d="M54.0073 27.2182V7.27442H58.4062V27.2182H54.0073Z" fill="#949494"/>
<path d="M62.338 26.016C63.2668 27.127 64.5964 27.6826 66.3267 27.6826H66.518C67.6474 27.6826 68.8342 27.7099 69.5993 27.2182C70.126 26.8797 70.8537 26.4026 71.3808 25.8112V27.2182H74.8505V12.2467H70.4796V21.0438C70.4796 21.8816 70.2336 22.5464 69.7417 23.0382C69.2501 23.5299 68.6127 23.7759 67.8293 23.7759C67.0643 23.7759 66.4544 23.539 65.9989 23.0655C65.5438 22.592 65.3161 21.9546 65.3161 21.153V12.2467H60.9448V20.9346C60.9448 23.193 61.4092 24.8869 62.338 26.016Z" fill="#949494"/>
<path fill-rule="evenodd" clip-rule="evenodd" d="M84.1678 27.7373C82.8929 27.7373 81.7635 27.5187 80.78 27.0816C79.8147 26.6444 79.0043 26.0616 78.3486 25.333C77.7112 24.5864 77.2192 23.7577 76.8731 22.8469C76.5453 21.9181 76.3816 20.9708 76.3816 20.0056V19.4593C76.3816 18.4576 76.5453 17.5012 76.8731 16.5906C77.2192 15.6618 77.7112 14.8331 78.3486 14.1045C78.986 13.3759 79.7783 12.8023 80.7253 12.3832C81.6906 11.9462 82.7835 11.7276 84.0037 11.7276C85.6064 11.7276 86.9542 12.0919 88.0471 12.8205C89.1583 13.5309 90.0052 14.4688 90.588 15.6345C91.1707 16.7819 91.4621 18.0385 91.4621 19.4046V20.8799H80.5269C80.5896 21.3236 80.6924 21.7335 80.8347 22.1094C81.0896 22.765 81.4904 23.275 82.0366 23.6391C82.5833 24.0034 83.2933 24.1856 84.1678 24.1856C84.9689 24.1856 85.6246 24.0308 86.1348 23.7212C86.3741 23.5757 86.5774 23.4143 86.7447 23.2368C86.9337 23.0362 87.0765 22.8153 87.173 22.5738H91.1889C90.9705 23.5755 90.5426 24.4678 89.9047 25.2512C89.2673 26.0343 88.4662 26.6444 87.5009 27.0816C86.5356 27.5187 85.4244 27.7373 84.1678 27.7373ZM80.5821 18.2776C80.5745 18.3159 80.5674 18.3546 80.5607 18.3937H87.3109C87.2478 17.9738 87.1468 17.5915 87.0089 17.2463C86.754 16.6089 86.3715 16.1262 85.8617 15.7984C85.3697 15.4523 84.7505 15.2793 84.0037 15.2793C83.864 15.2793 83.7279 15.2851 83.5958 15.2966C83.465 15.3082 83.3382 15.3253 83.215 15.3482C82.7835 15.4283 82.4001 15.5784 82.0642 15.7984C81.5358 16.1445 81.135 16.6545 80.8619 17.3284C80.8334 17.3969 80.8063 17.4672 80.7805 17.539C80.7538 17.6133 80.7293 17.6894 80.7062 17.7672C80.6581 17.9296 80.6168 18.0997 80.5821 18.2776Z" fill="#949494"/>
<path d="M93.6755 26.3712C94.8779 27.2455 96.5442 27.6826 98.6753 27.6826C100.023 27.6826 101.198 27.4913 102.2 27.1088C103.201 26.7082 103.975 26.1435 104.522 25.4151C105.068 24.6682 105.342 23.7939 105.342 22.7922C105.342 21.4081 104.831 20.3063 103.811 19.4864C102.791 18.6669 101.362 18.1571 99.5223 17.9567L98.3475 17.8473C97.5642 17.7563 96.9997 17.6015 96.6536 17.3829C96.513 17.2941 96.401 17.1889 96.3173 17.067C96.1954 16.8889 96.1345 16.6754 96.1345 16.4267C96.1345 15.9897 96.3347 15.6436 96.7355 15.3885C97.1363 15.1336 97.6736 15.0062 98.3475 15.0062C99.2034 15.0062 99.8501 15.1792 100.287 15.5251C100.724 15.8529 100.979 16.2628 101.052 16.7545H104.931C104.877 15.1518 104.257 13.9315 103.074 13.0936C101.89 12.2376 100.333 11.8096 98.4022 11.8096C97.1999 11.8096 96.1256 11.9918 95.1781 12.3561C94.2493 12.7202 93.5207 13.2576 92.9927 13.9679C92.4647 14.6783 92.2005 15.5615 92.2005 16.618C92.2005 17.8929 92.6466 18.9402 93.5389 19.7598C94.4499 20.5794 95.8067 21.0803 97.61 21.2624L98.7848 21.3716C99.7683 21.4808 100.451 21.6721 100.834 21.9454C101.216 22.2003 101.407 22.5464 101.407 22.9834C101.407 23.4752 101.152 23.8578 100.642 24.1309C100.15 24.386 99.5223 24.5134 98.7572 24.5134C97.7554 24.5134 96.9997 24.3313 96.4895 23.967C95.9979 23.5846 95.7155 23.1565 95.643 22.683H91.7632C91.8362 24.2677 92.4736 25.4969 93.6755 26.3712Z" fill="#949494"/>
</svg>
