<svg width="123" height="34" viewBox="0 0 123 34" fill="none" xmlns="http://www.w3.org/2000/svg">
<path d="M65.283 16.6031C64.5127 17.3519 64.1276 18.4431 64.1276 19.8766V28.8305H58.9927V11.2435H63.0685V17.0472C63.2638 15.3906 63.7558 14.0551 64.5448 13.0407C65.6146 11.6928 67.1551 11.0189 69.1662 11.0189H69.8402V15.4477H68.5565C67.1444 15.4477 66.0532 15.8328 65.283 16.6031Z" fill="#949494"/>
<path fill-rule="evenodd" clip-rule="evenodd" d="M80.8478 26.6803C81.0684 26.3063 81.2502 25.8937 81.3934 25.4424V28.8305H85.4692V18.0473C85.4692 16.4212 85.1483 15.0947 84.5065 14.0677C83.8646 13.0193 82.9232 12.2384 81.6823 11.7249C80.4627 11.2114 78.9544 10.9547 77.1571 10.9547C76.5367 10.9547 75.8734 10.9654 75.1674 10.9868C74.4613 11.0082 73.7767 11.0403 73.1134 11.0831C72.4502 11.1259 71.8725 11.1686 71.3804 11.2114V15.544C72.0436 15.5012 72.7818 15.4584 73.5948 15.4156C74.4078 15.3728 75.1995 15.3407 75.9697 15.3193C76.7399 15.2979 77.3604 15.2873 77.8311 15.2873C78.7725 15.2873 79.4571 15.5119 79.8851 15.9612C80.313 16.4105 80.5269 17.0845 80.5269 17.9831V18.0473H77.3497C75.7878 18.0473 74.4078 18.2505 73.2097 18.657C72.0116 19.0421 71.0809 19.6519 70.4176 20.4863C69.7543 21.2994 69.4227 22.3477 69.4227 23.6314C69.4227 24.8082 69.6902 25.8245 70.225 26.6803C70.7599 27.5147 71.4981 28.1566 72.4395 28.6059C73.4023 29.0552 74.5148 29.2798 75.7771 29.2798C76.9967 29.2798 78.0237 29.0552 78.8581 28.6059C79.7139 28.1566 80.3771 27.5147 80.8478 26.6803ZM80.0134 24.3696C80.313 23.8775 80.4841 23.1928 80.5269 22.3156V20.9035H77.3176C76.419 20.9035 75.7237 21.1282 75.2316 21.5775C74.7609 22.0054 74.5255 22.5938 74.5255 23.3426C74.5255 24.0487 74.7609 24.6263 75.2316 25.0756C75.7237 25.5035 76.419 25.7175 77.3176 25.7175C77.8953 25.7175 78.4088 25.6212 78.8581 25.4287C79.3288 25.2147 79.7139 24.8617 80.0134 24.3696Z" fill="#949494"/>
<path d="M96.1161 29.4403C94.597 29.4403 93.2705 29.1942 92.1366 28.7021C91.024 28.1887 90.0933 27.504 89.3445 26.6482C88.5956 25.7924 88.0394 24.8296 87.6756 23.7598C87.3119 22.6687 87.1301 21.5454 87.1301 20.39V19.7803C87.1301 18.5821 87.3226 17.4375 87.7077 16.3463C88.0929 15.2338 88.6598 14.2496 89.4087 13.3938C90.1575 12.5379 91.0882 11.864 92.2008 11.3719C93.3347 10.8798 94.6291 10.6338 96.084 10.6338C97.6673 10.6338 99.0687 10.944 100.288 11.5645C101.508 12.1635 102.481 13.0086 103.209 14.0998C103.936 15.191 104.343 16.4426 104.428 17.8547H99.3896C99.304 17.0631 98.9831 16.3998 98.4268 15.8649C97.8919 15.3086 97.111 15.0305 96.084 15.0305C95.2282 15.0305 94.5115 15.2445 93.9338 15.6724C93.3775 16.1003 92.9603 16.6886 92.6822 17.4375C92.404 18.1863 92.2649 19.0742 92.2649 20.1012C92.2649 21.0426 92.3933 21.8984 92.6501 22.6687C92.9068 23.4175 93.3133 24.0059 93.8696 24.4338C94.4473 24.8403 95.1961 25.0435 96.1161 25.0435C96.8008 25.0435 97.3784 24.9259 97.8491 24.6905C98.3412 24.4338 98.7263 24.0914 99.0045 23.6635C99.304 23.2142 99.4859 22.7007 99.5501 22.1231H104.557C104.492 23.578 104.086 24.8617 103.337 25.9742C102.588 27.0654 101.593 27.9212 100.352 28.5417C99.1115 29.1408 97.6994 29.4403 96.1161 29.4403Z" fill="#949494"/>
<path fill-rule="evenodd" clip-rule="evenodd" d="M110.312 28.6701C111.467 29.1835 112.794 29.4403 114.291 29.4403C115.768 29.4403 117.073 29.1835 118.207 28.6701C119.341 28.1566 120.282 27.4398 121.031 26.5198C121.78 25.5998 122.282 24.5514 122.539 23.3747H117.822C117.608 23.9096 117.201 24.3589 116.602 24.7226C116.003 25.0863 115.233 25.2682 114.291 25.2682C113.264 25.2682 112.43 25.0542 111.788 24.6263C111.146 24.1984 110.675 23.5994 110.376 22.8291C110.209 22.3876 110.088 21.9063 110.015 21.3849H122.86V19.6519C122.86 18.0473 122.518 16.571 121.833 15.2231C121.149 13.8538 120.154 12.7519 118.849 11.9175C117.565 11.0617 115.982 10.6338 114.099 10.6338C112.665 10.6338 111.382 10.8905 110.248 11.404C109.135 11.8961 108.204 12.57 107.455 13.4259C106.707 14.2817 106.129 15.2552 105.722 16.3463C105.337 17.4161 105.145 18.5393 105.145 19.7161V20.358C105.145 21.4919 105.337 22.6045 105.722 23.6956C106.129 24.7654 106.707 25.7389 107.455 26.6161C108.226 27.4719 109.178 28.1566 110.312 28.6701ZM110.054 18.4645C110.134 18.0043 110.252 17.5871 110.408 17.2128C110.729 16.4212 111.2 15.8221 111.82 15.4156C112.441 15.0091 113.2 14.8059 114.099 14.8059C114.976 14.8059 115.703 15.0091 116.281 15.4156C116.88 15.8007 117.329 16.3677 117.629 17.1166C117.791 17.522 117.909 17.9713 117.984 18.4645H110.054Z" fill="#949494"/>
<path d="M46.7665 28.8305V9.9919H40.1874V5.40259H58.6409V9.9919H52.0298V28.8305H46.7665Z" fill="#949494"/>
<path fill-rule="evenodd" clip-rule="evenodd" d="M16.2073 3.79254C8.88844 3.79254 2.95532 9.72566 2.95532 17.0445C2.95532 24.3634 8.88844 30.2965 16.2073 30.2965C23.5262 30.2965 29.4593 24.3634 29.4593 17.0445C29.4593 9.72566 23.5262 3.79254 16.2073 3.79254ZM0.010437 17.0445C0.010437 8.09925 7.26203 0.847656 16.2073 0.847656C25.1526 0.847656 32.4042 8.09925 32.4042 17.0445C32.4042 25.9898 25.1526 33.2414 16.2073 33.2414C7.26203 33.2414 0.010437 25.9898 0.010437 17.0445Z" fill="#949494"/>
<path fill-rule="evenodd" clip-rule="evenodd" d="M24.2875 11.5533C24.7191 10.1936 23.4297 8.91658 22.0743 9.36134L12.8414 12.3909C12.3069 12.5662 11.8894 12.9879 11.7192 13.524L8.8583 22.5357C8.42665 23.8954 9.71609 25.1725 11.0715 24.7277L20.3044 21.6982C20.8389 21.5228 21.2564 21.1012 21.4266 20.5651L24.2875 11.5533ZM16.5712 19.148C17.7329 19.148 18.6747 18.2062 18.6747 17.0445C18.6747 15.8828 17.7329 14.941 16.5712 14.941C15.4095 14.941 14.4677 15.8828 14.4677 17.0445C14.4677 18.2062 15.4095 19.148 16.5712 19.148Z" fill="#949494"/>
</svg>
