<svg width="134" height="28" viewBox="0 0 134 28" fill="none" xmlns="http://www.w3.org/2000/svg">
<path d="M59.0075 25.9294C56.9736 25.9294 55.2274 25.5699 53.7688 24.8509C52.3102 24.1318 51.1187 23.1971 50.1942 22.0467C49.2903 20.8962 48.6226 19.643 48.1912 18.2872C47.7598 16.9313 47.5441 15.6267 47.5441 14.3736V13.6956C47.5441 12.2987 47.7598 10.9222 48.1912 9.56634C48.6432 8.21046 49.3314 6.97783 50.2558 5.86847C51.1803 4.75911 52.3513 3.87573 53.7688 3.21833C55.2069 2.54039 56.9017 2.20142 58.8534 2.20142C60.8872 2.20142 62.654 2.5712 64.1537 3.31078C65.6739 4.02981 66.886 5.057 67.7899 6.39234C68.6938 7.70714 69.2382 9.24792 69.4231 11.0147H65.0165C64.8522 9.98749 64.4824 9.12465 63.9071 8.42617C63.3525 7.70714 62.6437 7.173 61.7809 6.82376C60.918 6.45397 59.9422 6.26908 58.8534 6.26908C57.744 6.26908 56.7579 6.46424 55.8951 6.85457C55.0323 7.22436 54.3132 7.7585 53.738 8.45698C53.1628 9.15547 52.7211 9.97722 52.4129 10.9222C52.1253 11.8672 51.9815 12.915 51.9815 14.0654C51.9815 15.1748 52.1253 16.202 52.4129 17.147C52.7211 18.092 53.173 18.924 53.7688 19.643C54.3646 20.3415 55.0939 20.8859 55.9567 21.2763C56.8401 21.6666 57.857 21.8618 59.0075 21.8618C60.6921 21.8618 62.1096 21.4509 63.26 20.6291C64.431 19.7868 65.1398 18.6159 65.3863 17.1162H69.7929C69.5875 18.7186 69.0431 20.1875 68.1597 21.5228C67.2763 22.8581 66.0642 23.9264 64.5235 24.7276C62.9827 25.5288 61.144 25.9294 59.0075 25.9294Z" fill="#949494"/>
<path d="M71.8215 25.3439V2.84854H76.1048V25.3439H71.8215ZM69.726 6.05337V2.84854H76.1048V6.05337H69.726Z" fill="#949494"/>
<path d="M87.497 25.9294C86.0178 25.9294 84.7133 25.6932 83.5834 25.2207C82.4535 24.7482 81.4982 24.1113 80.7175 23.3101C79.9369 22.4883 79.3411 21.5639 78.9302 20.5367C78.5399 19.5095 78.3447 18.4412 78.3447 17.3319V16.6847C78.3447 15.5343 78.5502 14.4455 78.961 13.4183C79.3925 12.3706 79.9985 11.4461 80.7792 10.6449C81.5804 9.82314 82.5459 9.18628 83.6758 8.73432C84.8057 8.26182 86.0794 8.02556 87.497 8.02556C88.9145 8.02556 90.1882 8.26182 91.3181 8.73432C92.448 9.18628 93.4033 9.82314 94.1839 10.6449C94.9852 11.4461 95.5912 12.3706 96.0021 13.4183C96.4129 14.4455 96.6184 15.5343 96.6184 16.6847V17.3319C96.6184 18.4412 96.4129 19.5095 96.0021 20.5367C95.6117 21.5639 95.0262 22.4883 94.2456 23.3101C93.4649 24.1113 92.5096 24.7482 91.3797 25.2207C90.2498 25.6932 88.9556 25.9294 87.497 25.9294ZM87.497 22.2624C88.5447 22.2624 89.4281 22.0364 90.1471 21.5844C90.8661 21.1119 91.4105 20.4853 91.7803 19.7047C92.1501 18.9035 92.335 17.9995 92.335 16.9929C92.335 15.9657 92.1398 15.0618 91.7495 14.2811C91.3797 13.4799 90.825 12.8533 90.0855 12.4014C89.3664 11.9289 88.5036 11.6926 87.497 11.6926C86.4903 11.6926 85.6172 11.9289 84.8776 12.4014C84.1586 12.8533 83.6039 13.4799 83.2136 14.2811C82.8233 15.0618 82.6281 15.9657 82.6281 16.9929C82.6281 17.9995 82.813 18.9035 83.1828 19.7047C83.5731 20.4853 84.1278 21.1119 84.8468 21.5844C85.5658 22.0364 86.4492 22.2624 87.497 22.2624Z" fill="#949494"/>
<path d="M104.529 25.8678C102.598 25.8678 101.098 25.2309 100.03 23.9572C98.9823 22.6835 98.4584 20.7935 98.4584 18.2872V8.58024H102.742V18.6569C102.742 19.6841 103.029 20.5059 103.605 21.1222C104.18 21.718 104.96 22.0158 105.947 22.0158C106.933 22.0158 107.734 21.6974 108.35 21.0606C108.987 20.4237 109.306 19.5609 109.306 18.4721V8.58024H113.589V25.3439H110.199V18.2255H110.538C110.538 19.9101 110.322 21.3174 109.891 22.4473C109.46 23.5772 108.812 24.4297 107.95 25.005C107.087 25.5802 106.008 25.8678 104.714 25.8678H104.529Z" fill="#949494"/>
<path d="M123.902 25.8986C122.731 25.8986 121.652 25.6829 120.666 25.2515C119.68 24.8201 118.828 24.214 118.109 23.4334C117.39 22.6527 116.835 21.7488 116.445 20.7216C116.054 19.6739 115.859 18.544 115.859 17.3319V16.6847C115.859 15.4932 116.044 14.3736 116.414 13.3258C116.804 12.2781 117.338 11.3639 118.016 10.5833C118.715 9.8026 119.547 9.19656 120.512 8.76514C121.498 8.31318 122.587 8.0872 123.779 8.0872C125.094 8.0872 126.244 8.37481 127.23 8.95003C128.237 9.50471 129.038 10.347 129.634 11.4769C130.229 12.6068 130.558 14.0243 130.62 15.7295L129.356 14.2503V2.84854H133.64V25.3439H130.25V18.2255H130.99C130.928 19.9307 130.579 21.3584 129.942 22.5089C129.305 23.6388 128.463 24.4914 127.415 25.0666C126.388 25.6213 125.217 25.8986 123.902 25.8986ZM124.857 22.2932C125.7 22.2932 126.47 22.1083 127.168 21.7385C127.867 21.3482 128.422 20.7935 128.832 20.0745C129.264 19.3349 129.48 18.472 129.48 17.486V16.2533C129.48 15.2672 129.264 14.4455 128.832 13.7881C128.401 13.1101 127.836 12.5965 127.138 12.2473C126.439 11.8775 125.679 11.6926 124.857 11.6926C123.933 11.6926 123.111 11.9186 122.392 12.3706C121.694 12.802 121.139 13.4183 120.728 14.2195C120.338 15.0207 120.142 15.9554 120.142 17.0237C120.142 18.092 120.348 19.0267 120.759 19.8279C121.17 20.6086 121.724 21.2146 122.423 21.6461C123.142 22.0775 123.953 22.2932 124.857 22.2932Z" fill="#949494"/>
<path d="M31.4061 27.7095C29.9262 27.7095 29.0143 27.0262 27.5246 26.2215C26.0349 25.4169 21.7263 22.177 21.7263 18.144C21.7263 15.4081 21.021 13.1953 19.82 11.4318C18.6279 9.68181 17.0129 8.46944 15.3328 7.6136C14.5232 7.20124 13.6807 6.86407 12.8418 6.58538C12.3527 6.42302 12.0689 5.8979 12.2811 5.42839C13.626 2.45095 16.6213 0.379395 20.1007 0.379395C24.837 0.379395 28.6767 4.21891 28.6767 8.95541C28.6767 9.96873 28.501 10.9411 28.1783 11.8434C29.5452 10.9222 31.1922 10.3846 32.9646 10.3846C37.7009 10.3846 41.5406 14.2242 41.5406 18.9607C41.5406 24.6626 36.5301 27.7095 31.4061 27.7095Z" fill="#949494"/>
<path d="M0.0899658 18.246C0.0899658 22.7666 3.0703 26.5331 7.01857 27.3654C7.62798 27.5881 8.28588 27.7095 8.97225 27.7095H22.2968C22.7436 27.7095 22.9382 27.1119 22.597 26.8232C20.2684 24.8528 18.5378 22.076 18.5378 18.144C18.5378 15.9834 17.9906 14.4099 17.1846 13.2269C16.3695 12.0303 15.2229 11.1359 13.8856 10.4545C12.5357 9.767 11.0703 9.32907 9.67085 9.01858C9.34123 8.97699 9.00583 8.95541 8.66599 8.95541C3.92948 8.95541 0.0899658 13.115 0.0899658 18.246Z" fill="#949494"/>
</svg>
