<svg width="32" height="23" viewBox="0 0 32 23" fill="none" xmlns="http://www.w3.org/2000/svg">
<path d="M12.1097 19.5372C11.0951 20.2274 9.93524 20.6218 8.70528 20.6218C4.73777 20.6218 1.51758 16.5453 1.51758 11.5139C1.51758 9.08777 2.26748 6.88475 3.48965 5.25L4.00084 6.09851C2.97328 7.52568 2.34793 9.42769 2.34793 11.5139C2.34793 15.9615 5.19447 19.5683 8.70269 19.5683C9.74322 19.5683 10.7267 19.2518 11.5959 18.6887L12.1071 19.5372H12.1097Z" fill="#EDEDED"/>
<path d="M14.1293 17.4884C15.2269 15.89 15.8938 13.8037 15.8938 11.5151C15.8938 6.4863 12.6762 2.40721 8.70612 2.40721C7.71489 2.40721 6.76518 2.66151 5.90629 3.12858C5.52744 3.32838 5.16676 3.57229 4.82684 3.85254L3.27772 0.925557L1.66113 0.863281L3.96275 4.6777L4.46875 5.51842L7.97437 11.3231L7.56439 11.9977L4.66336 16.7593L5.91667 16.8086L8.20272 13.0564L8.6127 12.3818L12.1676 18.2746L12.6736 19.1154L14.4952 22.1358L12.8293 18.983C13.312 18.5549 13.7479 18.0541 14.1345 17.4936L14.1293 17.4884ZM12.3597 18.1008L8.99674 11.7382L9.94645 10.1839L12.3571 6.232L11.1038 6.1827L9.32629 9.1019L8.40252 10.6147L5.28872 4.72959C5.64161 4.44156 6.01527 4.19765 6.40969 4.00823C7.12067 3.65533 7.89653 3.46331 8.70612 3.46331C12.2143 3.46331 15.0583 7.06754 15.0583 11.5151C15.0583 13.4482 14.5212 15.2257 13.6259 16.6114C13.2575 17.1796 12.8293 17.683 12.3571 18.1008H12.3597Z" fill="#EDEDED"/>
<path d="M28.7512 18.1532V8.08847H30.1804V18.1532H28.7512ZM28.4492 5.61254C28.4492 4.98853 28.8518 4.58594 29.4758 4.58594C30.0797 4.58594 30.4823 4.98853 30.4823 5.61254C30.4823 6.21642 30.0797 6.61902 29.4758 6.61902C28.8518 6.61902 28.4492 6.21642 28.4492 5.61254Z" fill="#EDEDED"/>
<path d="M21.5509 18.4162C19.558 18.4162 18.2295 17.2085 18.2295 15.4371C18.2295 13.4443 19.7191 12.1761 22.5976 12.1761H25.5969V11.7131C25.5969 9.80082 24.5904 9.09628 22.8593 9.09628C21.3294 9.09628 20.5645 9.68004 20.2223 10.7066H18.8132C19.1756 8.93525 20.6249 7.82812 22.9197 7.82812C25.5969 7.82812 26.9456 9.29758 26.9456 11.854V18.1546H25.5969V16.4838C24.8924 17.6916 23.4028 18.4162 21.5509 18.4162ZM19.6989 15.3968C19.6989 16.4838 20.5645 17.1481 21.9937 17.1481C24.0268 17.1481 25.4358 15.8195 25.5969 13.4644V13.4443H22.9398C20.7457 13.4443 19.6989 14.0884 19.6989 15.3968Z" fill="#EDEDED"/>
</svg>
