<svg width="109" height="34" viewBox="0 0 109 34" fill="none" xmlns="http://www.w3.org/2000/svg">
<path d="M64.7523 30.435C64.7523 30.8 65.0574 31.0909 65.422 31.0735L70.8288 30.815C71.1696 30.7988 71.4375 30.5178 71.4375 30.1766V13.0905C71.4375 12.7275 71.1355 12.4374 70.7728 12.4519L65.3659 12.6682C65.0232 12.6819 64.7523 12.9638 64.7523 13.3068V30.435Z" fill="#949494"/>
<path d="M65.5928 9.25468C66.2549 9.91683 67.0826 10.2479 68.0758 10.2479C69.12 10.2479 69.9604 9.91683 70.597 9.25468C71.2592 8.56707 71.5903 7.71392 71.5903 6.69524C71.5903 5.70202 71.2592 4.86161 70.597 4.174C69.9604 3.48638 69.12 3.14258 68.0758 3.14258C67.0826 3.14258 66.2549 3.48638 65.5928 4.174C64.9306 4.86161 64.5995 5.70202 64.5995 6.69524C64.5995 7.71392 64.9306 8.56707 65.5928 9.25468Z" fill="#949494"/>
<path fill-rule="evenodd" clip-rule="evenodd" d="M48.6666 20.1419V29.4287C48.6666 29.7364 48.4474 30.0004 48.1449 30.057L42.5852 31.0963C42.192 31.1698 41.8287 30.8681 41.8287 30.468V4.66032C41.8287 4.30734 42.1148 4.02119 42.4678 4.02119H53.3653C55.1989 4.02119 56.8033 4.365 58.1786 5.05261C59.5792 5.74022 60.6743 6.68251 61.4638 7.87946C62.2533 9.07641 62.648 10.4771 62.648 12.0815C62.648 13.686 62.2406 15.0994 61.4256 16.3218C60.6361 17.5188 59.5283 18.461 58.1021 19.1487C57.4852 19.4351 56.823 19.6596 56.1155 19.8221L63.3674 29.6928C63.7205 30.1734 63.2813 30.8329 62.7017 30.6924L56.7074 29.2389C56.5714 29.2059 56.45 29.1292 56.3618 29.0205L49.1555 20.1419H48.6666ZM48.6666 15.2522H52.4103C53.5308 15.2522 54.384 14.9848 54.9697 14.45C55.5809 13.8897 55.8865 13.1384 55.8865 12.1961C55.8865 11.2793 55.5809 10.5408 54.9697 9.98049C54.384 9.39475 53.5308 9.10188 52.4103 9.10188H48.6666V15.2522Z" fill="#949494"/>
<path d="M80.5059 31.6403C79.3599 31.6403 78.2266 31.4875 77.1061 31.1819C76.011 30.8762 74.9796 30.4688 74.0118 29.9594C73.2717 29.5394 72.618 29.0721 72.0507 28.5578C71.7946 28.3256 71.7976 27.9293 72.0395 27.6824L74.773 24.8913C75.0254 24.6336 75.4391 24.6384 75.7142 24.8717C76.2156 25.2966 76.7814 25.6428 77.4117 25.9102C78.2776 26.2667 79.1944 26.445 80.1621 26.445C80.7224 26.445 81.1426 26.3686 81.4228 26.2158C81.7284 26.063 81.8812 25.8465 81.8812 25.5664C81.8812 25.1589 81.6647 24.8533 81.2317 24.6495C80.8243 24.4203 80.2767 24.2293 79.5891 24.0765C78.927 23.8983 78.2266 23.6945 77.4881 23.4653C76.7495 23.2107 76.0365 22.8796 75.3488 22.4721C74.6612 22.0646 74.101 21.4916 73.668 20.7531C73.2605 20.0145 73.0568 19.0722 73.0568 17.9262C73.0568 16.7293 73.3751 15.6851 74.0118 14.7938C74.674 13.877 75.5908 13.1639 76.7623 12.6545C77.9338 12.1197 79.309 11.8523 80.8879 11.8523C82.4924 11.8523 84.0204 12.1325 85.472 12.6927C86.7066 13.1476 87.9467 14.0288 88.8383 14.9558C89.0877 15.2151 89.0387 15.6279 88.7535 15.8473L85.5917 18.2795C85.3259 18.484 84.9518 18.4425 84.7024 18.2182C84.2682 17.8274 83.8579 17.6239 83.2946 17.4296C82.556 17.1495 81.8812 17.0094 81.2699 17.0094C80.6842 17.0094 80.264 17.0985 80.0093 17.2768C79.7547 17.4296 79.6273 17.6461 79.6273 17.9262C79.6273 18.2573 79.8311 18.5247 80.2385 18.7284C80.6715 18.9322 81.219 19.1232 81.8812 19.3015C82.5688 19.4543 83.2691 19.658 83.9822 19.9127C84.7207 20.1673 85.4211 20.5239 86.0832 20.9823C86.7708 21.4152 87.3184 22.001 87.7259 22.7395C88.1588 23.4781 88.3753 24.4331 88.3753 25.6046C88.3753 27.4637 87.6622 28.9408 86.236 30.0358C84.8099 31.1055 82.8998 31.6403 80.5059 31.6403Z" fill="#949494"/>
<path fill-rule="evenodd" clip-rule="evenodd" d="M93.3682 30.3032C94.9726 31.1182 96.819 31.5257 98.9073 31.5257C100.563 31.5257 102.04 31.2583 103.339 30.7234C104.472 30.2659 105.455 29.6219 106.29 28.7915C106.529 28.5539 106.515 28.1697 106.277 27.9315L103.706 25.3604C103.445 25.0995 103.02 25.1165 102.747 25.3644C102.309 25.761 101.832 26.0702 101.314 26.2922C100.626 26.5978 99.8241 26.7506 98.9073 26.7506C97.9396 26.7506 97.1246 26.5596 96.4625 26.1776C95.8003 25.7956 95.291 25.2353 94.9344 24.4967C94.8472 24.3097 94.7705 24.1135 94.7046 23.9081L107.311 23.8496C107.604 23.8483 107.86 23.6494 107.918 23.3629C107.98 23.0502 108.02 22.766 108.037 22.5103C108.088 22.1028 108.114 21.7081 108.114 21.3261C108.114 19.5179 107.693 17.9135 106.853 16.5128C106.038 15.0866 104.892 13.9788 103.415 13.1894C101.963 12.3744 100.295 11.9669 98.4107 11.9669C96.4752 11.9669 94.7307 12.3999 93.1772 13.2658C91.6492 14.1062 90.4395 15.2649 89.5481 16.742C88.6568 18.1936 88.2111 19.8617 88.2111 21.7463C88.2111 23.6563 88.6695 25.3499 89.5863 26.827C90.5032 28.3041 91.7638 29.4628 93.3682 30.3032ZM94.6905 19.6175C94.75 19.4273 94.8185 19.2456 94.8962 19.0722C95.2273 18.3337 95.6984 17.7607 96.3097 17.3532C96.9209 16.9457 97.6467 16.742 98.4871 16.742C99.302 16.742 99.9769 16.9203 100.512 17.2768C101.047 17.6334 101.454 18.1554 101.734 18.843C101.826 19.0605 101.904 19.2986 101.969 19.5572L94.6905 19.6175Z" fill="#949494"/>
<path d="M9.18157 1.74252C9.18157 1.36344 9.46384 1.04368 9.84 0.996664L14.35 0.432917C14.7986 0.376838 15.1949 0.726652 15.1949 1.17877V16.0124C15.1949 16.4645 14.7986 16.8143 14.35 16.7583L9.84 16.1945C9.46384 16.1475 9.18157 15.8277 9.18157 15.4487V1.74252Z" fill="#949494"/>
<path d="M0.161621 3.62168C0.161621 3.2426 0.443898 2.92284 0.820051 2.87582L5.33003 2.31207C5.77866 2.25599 6.17492 2.60581 6.17492 3.05793V14.8849C6.17492 15.337 5.77866 15.6868 5.33002 15.6308L0.820051 15.067C0.443897 15.02 0.161621 14.7002 0.161621 14.3212V3.62168Z" fill="#949494"/>
<path d="M23.6455 1.68829C23.9801 1.77194 24.2148 2.0726 24.2148 2.41751V8.6837C24.2148 9.06278 23.9325 9.38253 23.5564 9.42955L19.0464 9.9933C18.5978 10.0494 18.2015 9.69957 18.2015 9.24744V1.29002C18.2015 0.801007 18.6611 0.442195 19.1355 0.560797L23.6455 1.68829Z" fill="#949494"/>
<path d="M32.4831 4.29666C32.4831 3.95175 32.2484 3.6511 31.9137 3.56745L27.4038 2.43995C26.9294 2.32135 26.4698 2.68016 26.4698 3.16917V8.87161C26.4698 9.32374 26.8661 9.67355 27.3147 9.61747L31.8247 9.05372C32.2008 9.0067 32.4831 8.68695 32.4831 8.30787V4.29666Z" fill="#949494"/>
<path d="M32.4831 11.9781L17.8257 12.3539C18.0378 15.1108 20.3367 17.2397 23.1018 17.2397H26.4698V20.4386L0.161621 17.9914V33.6618L32.4831 31.4069V11.9781Z" fill="#949494"/>
</svg>
