<svg width="142" height="40" viewBox="0 0 142 40" fill="none" xmlns="http://www.w3.org/2000/svg">
<path d="M79.9754 30.0516V7.30249H84.0973V30.0516H79.9754Z" fill="#949494"/>
<path d="M45.084 7.93179L53.7998 30.0516H57.198L66.0082 7.93179H61.4458L55.5503 23.4621L49.7094 7.93179H45.084Z" fill="#949494"/>
<path fill-rule="evenodd" clip-rule="evenodd" d="M66.6237 29.3279C67.8614 30.0202 69.2458 30.3663 70.7771 30.3663C72.3084 30.3663 73.6824 30.0202 74.899 29.3279C76.1366 28.6147 77.112 27.6603 77.8252 26.4646C78.5385 25.248 78.8951 23.895 78.8951 22.4056C78.8951 20.9163 78.5385 19.5843 77.8252 18.4096C77.112 17.2139 76.1366 16.27 74.899 15.5778C73.6824 14.8646 72.2979 14.508 70.7456 14.508C69.2353 14.508 67.8614 14.8646 66.6237 15.5778C65.3861 16.27 64.4107 17.2139 63.6975 18.4096C62.9843 19.5843 62.6277 20.9163 62.6277 22.4056C62.6277 23.895 62.9843 25.248 63.6975 26.4646C64.4317 27.6603 65.4071 28.6147 66.6237 29.3279ZM72.7909 26.0241C72.2035 26.3597 71.5218 26.5275 70.7456 26.5275C69.9905 26.5275 69.3192 26.3597 68.7319 26.0241C68.1445 25.6675 67.6831 25.185 67.3474 24.5767C67.0118 23.9474 66.844 23.2342 66.844 22.4371C66.844 21.64 67.0118 20.9373 67.3474 20.329C67.6831 19.7206 68.1445 19.2487 68.7319 18.913C69.3192 18.5564 69.9905 18.3781 70.7456 18.3781C71.5218 18.3781 72.2035 18.5564 72.7909 18.913C73.3782 19.2487 73.8397 19.7206 74.1753 20.329C74.5109 20.9373 74.6788 21.64 74.6788 22.4371C74.6788 23.2342 74.5109 23.9474 74.1753 24.5767C73.8607 25.185 73.3992 25.6675 72.7909 26.0241Z" fill="#949494"/>
<path d="M89.071 29.5167C90.1198 30.0831 91.3155 30.3663 92.658 30.3663C94.0005 30.3663 95.1857 30.0936 96.2135 29.5482C97.2624 28.9818 98.07 28.1952 98.6363 27.1883C99.2237 26.1814 99.5173 25.0067 99.5173 23.6642V14.8541H95.3954V23.5698C95.3954 24.5138 95.1542 25.248 94.6718 25.7724C94.1893 26.2968 93.518 26.559 92.658 26.559C92.0916 26.559 91.5987 26.4436 91.1791 26.2129C90.7596 25.9822 90.445 25.6465 90.2352 25.206C90.0254 24.7445 89.9206 24.1991 89.9206 23.5698V14.8541H85.7672V23.6642C85.7672 24.9858 86.0609 26.15 86.6482 27.1568C87.2355 28.1637 88.0431 28.9503 89.071 29.5167Z" fill="#949494"/>
<path d="M101.227 30.0516V14.8541H105.348V16.1726C105.717 15.8127 106.137 15.5095 106.607 15.2631C107.488 14.7807 108.484 14.5394 109.596 14.5394C110.645 14.5394 111.599 14.7807 112.46 15.2631C113.18 15.6498 113.776 16.1765 114.246 16.8432C114.754 16.1944 115.376 15.6782 116.109 15.2946C117.032 14.7911 118.06 14.5394 119.193 14.5394C120.326 14.5394 121.343 14.7807 122.245 15.2631C123.147 15.7246 123.86 16.3958 124.385 17.2769C124.909 18.1579 125.171 19.2067 125.171 20.4234V30.0516H121.049V21.0841C121.049 20.2031 120.766 19.5214 120.2 19.0389C119.654 18.5355 118.973 18.2837 118.155 18.2837C117.63 18.2837 117.137 18.3991 116.676 18.6299C116.235 18.8396 115.889 19.1543 115.637 19.5738C115.386 19.9933 115.26 20.4968 115.26 21.0841V30.0516H111.138V21.0841C111.138 20.2031 110.855 19.5214 110.288 19.0389C109.743 18.5355 109.061 18.2837 108.243 18.2837C107.698 18.2837 107.205 18.3991 106.764 18.6299C106.324 18.8396 105.978 19.1543 105.726 19.5738C105.474 19.9933 105.348 20.4968 105.348 21.0841V30.0516H101.227Z" fill="#949494"/>
<path fill-rule="evenodd" clip-rule="evenodd" d="M129.96 29.3594C131.198 30.0306 132.613 30.3663 134.208 30.3663C135.445 30.3663 136.588 30.146 137.637 29.7055C138.707 29.265 139.609 28.6147 140.343 27.7547L137.92 25.3319C137.459 25.8563 136.914 26.2549 136.284 26.5275C135.655 26.7793 134.952 26.9051 134.176 26.9051C133.316 26.9051 132.561 26.7268 131.911 26.3702C131.26 25.9926 130.757 25.4682 130.4 24.797C130.266 24.5204 130.159 24.2253 130.078 23.9119L141.193 23.8845C141.277 23.5279 141.329 23.2132 141.35 22.9405C141.392 22.6469 141.413 22.3637 141.413 22.091C141.413 20.6436 141.088 19.3535 140.438 18.2208C139.808 17.0671 138.927 16.1651 137.795 15.5148C136.683 14.8436 135.393 14.508 133.924 14.508C132.435 14.508 131.082 14.8646 129.865 15.5778C128.649 16.27 127.684 17.2139 126.971 18.4096C126.278 19.5843 125.932 20.9268 125.932 22.4371C125.932 23.9684 126.289 25.3319 127.002 26.5275C127.736 27.7232 128.722 28.6672 129.96 29.3594ZM130.082 20.8276C130.156 20.5494 130.251 20.2888 130.369 20.0458C130.705 19.3745 131.177 18.8606 131.785 18.504C132.393 18.1264 133.106 17.9376 133.924 17.9376C134.701 17.9376 135.351 18.1054 135.875 18.4411C136.421 18.7557 136.83 19.2172 137.102 19.8255C137.244 20.1184 137.356 20.4453 137.439 20.8063L130.082 20.8276Z" fill="#949494"/>
<path fill-rule="evenodd" clip-rule="evenodd" d="M19.7537 39.1895C30.3272 39.1895 38.8988 30.618 38.8988 20.0445C38.8988 9.47095 30.3272 0.899414 19.7537 0.899414C9.18018 0.899414 0.608643 9.47095 0.608643 20.0445C0.608643 30.618 9.18018 39.1895 19.7537 39.1895ZM27.683 8.32616C27.9103 8.51832 28.0411 8.80079 28.0411 9.09838L28.0406 12.9448L28.0411 13.1979L28.0406 13.2281V26.1038C28.0406 28.34 26.2279 30.1526 23.9918 30.1526C21.7557 30.1526 19.943 28.34 19.943 26.1038C19.943 23.8677 21.7557 22.0548 23.9918 22.0548C24.7293 22.0548 25.4206 22.2521 26.0162 22.5966V14.3927L15.8938 16.0801V28.1282C15.8938 30.3644 14.0811 32.1771 11.8449 32.1771C9.60881 32.1771 7.79614 30.3644 7.79614 28.1282C7.79614 25.8921 9.60881 24.0792 11.8449 24.0792C12.5825 24.0792 13.2742 24.2765 13.8693 24.621L13.8698 15.2223L13.8693 14.9692L13.8698 14.9389V11.1228C13.8698 10.6281 14.2274 10.2058 14.7159 10.1244L26.8623 8.09996C27.1559 8.05103 27.4561 8.13377 27.683 8.32616Z" fill="#949494"/>
</svg>
